<svg
        xmlns="http://www.w3.org/2000/svg"
        xmlns:xlink="http://www.w3.org/1999/xlink" viewBox="0 0 240.94 150.24">
    <defs>
        <style>.blue-verso-f{fill:none;}.blue-verso-g{fill:#ededed;}.blue-verso-h{fill:#b3b2b2;}.blue-verso-i{fill:#8cd0e0;}.blue-verso-j{fill:#c6c6c6;}.blue-verso-k{fill:#1c3859;}.blue-verso-l{clip-path:url(#blue-verso-e);}</style>
        <clipPath id="blue-verso-e">
            <rect class="blue-verso-f" x="105.98" width="134.97" height="150"/>
        </clipPath>
    </defs>
    <g id="blue-verso-a"/>
    <g id="blue-verso-b">
        <g id="blue-verso-c">
            <g>
                <g id="blue-verso-d">
                    <polygon class="blue-verso-k" points="0 150.24 0 0 125.97 0 125.97 150.21 0 150.24"/>
                    <rect class="blue-verso-i" y="127.52" width="240.94" height="9.64"/>
                </g>
                <g class="blue-verso-l">
                    <g>
                        <g>
                            <path class="blue-verso-j" d="M138.07,45.78c7.34-16.54,17.98-24.58,18.08-24.66l-.27-.36s-2.74,2.05-6.32,6.11c-3.3,3.74-8.05,10.03-11.91,18.73l.41,.18Z"/>
                            <path class="blue-verso-g" d="M162.12,123.32l2.12-3.74-.28-.24c-17.69-15.21-20.34-33.61-20.36-33.8l-.9,.12c.03,.19,2.68,18.73,20.39,34.12l-1.21,2.13c-14.05-12.25-18.2-24.86-18.24-24.99l-.12-.37-3.38,.56c-2.55-6.46-3.43-12.75-3.44-12.82l-.9,.12c0,.07,.93,6.69,3.63,13.37l.14,.34,3.34-.55c.81,2.23,5.58,14.03,18.8,25.39l.42,.36Z"/>
                            <path class="blue-verso-g" d="M161.46,130.74l.51-.75c-16.55-11.4-21.88-24.76-21.93-24.89l-.14-.35-3.43,.66c-5.83-11.74-6.82-22.44-6.96-24.61l6.59-1.09-.03-.41c-1.19-17.21,3.74-28.36,3.79-28.47l.18-.41-6.05-2.87c12.2-30.41,37.82-40.4,41.14-41.58l4.75,8.84,.37-.14c22.46-8.37,43.49,.07,43.7,.15l.35-.84c-.21-.09-21.32-8.57-43.99-.3l-4.73-8.81-.36,.11c-.29,.09-29.14,9.5-42.22,42.63l-.16,.39,6.03,2.86c-.87,2.17-4.7,12.71-3.72,28.08l-6.57,1.09v.4c.02,.12,.5,12.3,7.25,25.69l.15,.31,3.37-.65c.97,2.21,6.82,14.43,22.11,24.96Z"/>
                            <path class="blue-verso-j" d="M201.82,133.61c6.78,0,14.31-1.14,22.39-4.16l-.16-.43c-32.96,12.29-56.68-6.75-56.92-6.95l-.21-.17-3.34,5.82c-15.18-10.42-21.99-26.54-22.06-26.7l-.07-.17-3.4,.57c-3.32-7.1-4.89-16.7-4.91-16.8l-.45,.07c.02,.1,1.62,9.91,5.02,17.08l.07,.15,3.39-.56c.77,1.76,7.75,16.95,22.35,26.87l.2,.14,3.32-5.79c1.81,1.39,15.09,11.01,34.76,11.01Z"/>
                            <path class="blue-verso-g" d="M143.39,62.49c6.48-30.72,30.34-41.25,30.58-41.35l.45-.19-1.78-3.38-.8,.42,1.33,2.52c-3.35,1.62-24.59,12.94-30.67,41.79l.89,.19Z"/>
                            <path class="blue-verso-g" d="M146.57,44.01c7.09-13.8,19.12-21.66,19.24-21.74l.36-.23-1.65-2.93c2.05-1.47,3.05-1.93,3.06-1.94l-.37-.83s-1.19,.55-3.55,2.27l-.33,.24,1.63,2.9c-2.07,1.43-12.69,9.18-19.2,21.85l.81,.41Z"/>
                            <path class="blue-verso-j" d="M140.99,91.3l.43-.13c-7.04-23.13,3.21-43.79,3.32-44l.11-.21-3.01-1.43c6.83-15.18,18.87-23.88,18.99-23.97l.16-.11-1.58-3c6.17-4.84,12.25-7.62,13.38-8.12l4.75,8.85,.19-.08c20.49-8.76,37.93-3.57,38.1-3.52l.13-.43c-.17-.05-17.66-5.27-38.22,3.45l-4.75-8.85-.19,.08c-.07,.03-6.91,2.92-13.82,8.38l-.15,.12,1.57,2.99c-1.47,1.1-12.64,9.78-19.07,24.24l-.09,.2,2.99,1.42c-1.06,2.24-9.96,22.07-3.24,44.13Z"/>
                            <path class="blue-verso-j" d="M122.68,65.93c2.41-23.39,14.31-38.42,14.43-38.57l.14-.17-7.48-6.55c10.87-15.92,28.76-25.48,30.87-26.57l2.73,5.57c-16.88,9.09-25.9,21.04-25.99,21.16l-.13,.17,5.33,4.65,.15-.18C157.41,7.5,175.91,1.71,177.89,1.13l4.84,8.98,.18-.05c16.1-4.98,30.02-1.85,30.16-1.82l.1-.44c-.14-.03-14.07-3.16-30.22,1.77l-4.83-8.96-.17,.05c-.2,.05-19.88,5.47-35.42,24.33l-4.66-4.07c1.16-1.48,10.08-12.5,25.91-20.97l.19-.1-3.13-6.38-.2,.1c-.2,.1-19.8,9.94-31.36,26.99l-.11,.17,7.46,6.53c-1.33,1.74-12.11,16.46-14.4,38.64l.45,.05Z"/>
                            <path class="blue-verso-g" d="M202.04,137.25c4.19,0,8.66-.41,13.36-1.4l-.19-.89c-26.79,5.64-46.11-7.82-46.3-7.96l-.41-.29-5.01,8.68c-16.37-9.9-24.93-26-25.01-26.17l-.15-.29-3.5,.56c-8.02-14.35-8.79-29.11-8.87-31.65l6.61-1.16v-.39c-.28-14.58,2.93-22.94,2.96-23.02l.15-.39-6.09-2.9c4.59-13.8,11.72-22.26,11.79-22.35l.29-.34-7.6-6.63C145.39,6.23,158.75-.85,158.88-.92l-.42-.8c-.14,.07-13.87,7.36-25.35,22.17l-.26,.34,7.58,6.61c-1.4,1.76-7.68,10.07-11.81,22.69l-.12,.38,6.06,2.89c-.63,1.82-3.08,9.82-2.9,22.58l-6.6,1.16v.38c0,.17,.1,16.77,9.15,32.75l.16,.27,3.49-.56c1.25,2.26,9.96,17.19,25.59,26.47l.39,.23,4.98-8.63c2.41,1.57,15.14,9.23,33.24,9.23Z"/>
                            <path class="blue-verso-g" d="M143.04,20.18C158.46,3.06,178.1-2.41,180.54-3.04l4.91,9.07,.25-.06c19.29-4.45,34.24,.45,34.39,.5l.22-.65c-.15-.05-15.15-4.97-34.5-.57l-4.91-9.08-.25,.06c-.21,.05-21.57,5.13-38.1,23.48l.51,.46Z"/>
                            <path class="blue-verso-g" d="M234.68,8.65l.46-.78c-.2-.12-19.9-11.62-46.58-6.71l-2.86-5.31c1.83-.41,7.96-1.64,16.21-1.64h.45v-4.22l-.44-.02c-.18,0-17.23-.58-34.06,7.19l-1.27-2.56-.81,.4,1.67,3.36,.4-.19c15.26-7.17,30.81-7.33,33.6-7.3v2.43c-9.75,.05-16.48,1.79-16.55,1.8l-.56,.15,3.73,6.92,.33-.06c26.49-5.01,46.08,6.42,46.27,6.53Z"/>
                            <path class="blue-verso-g" d="M226.88,1.73l.36-.83c-.15-.07-15.37-6.5-35.82-3.56l.13,.9c20.18-2.9,35.18,3.43,35.33,3.49Z"/>
                            <path class="blue-verso-j" d="M201.3,150.25c6.06,0,12.59-.68,19.59-2.25l-.1-.44c-29.88,6.72-51.12-2.92-63.67-12.2-13.61-10.05-20.24-21.85-20.31-21.97l-.08-.14-3.67,.66c-9.3-17.61-9.98-29.13-9.98-29.24v-.22h-3.39c-4.26-33.44,13.24-56.91,13.42-57.14l.13-.17-7.61-6.6c14.76-21.5,35.29-30.47,37.48-31.38l1.5,2.94,5.89-2.39,1.49,3,.19-.08c15.75-6.16,32.05-5.32,34.07-5.19V-5.89h.22C219.1-5.61,232.34,0,232.47,.06l.18-.42c-.13-.06-13.29-5.64-25.95-5.98v-6.65l-.21-.02c-.17-.02-17.5-1.38-34.29,5.13l-1.49-3.01-5.9,2.39-1.5-2.94-.19,.08c-.22,.09-22.38,8.93-37.99,31.79l-.11,.17,7.6,6.59c-1.59,2.21-17.54,25.28-13.35,57.5l.03,.2h3.35c.14,1.67,1.37,12.89,10.1,29.36l.08,.15,3.68-.66c.8,1.38,7.46,12.45,20.34,21.96,9.69,7.16,24.52,14.54,44.47,14.54Z"/>
                            <path class="blue-verso-g" d="M121.63,75.31l7.56-1.32v-.38c.08-9.74,2.25-18.01,2.27-18.09l.1-.38-3.45-1.49-.36,.83,2.74,1.18c-.42,1.72-2.09,9.04-2.2,17.56l-5.75,1v-2.68l3.3-.51,.02-.36c0-.06,.38-5.92,.83-8.32l-.89-.16c-.39,2.12-.73,6.72-.82,8.06l-3.35,.52v4.54Z"/>
                            <path class="blue-verso-g" d="M117.61,113.79l3.55-1.84-.18-.39c-11.4-24.68-8.16-47.09-7.59-50.42l3.31,.52,.06-.47c2.39-19.45,12.39-33.38,12.49-33.51l.24-.34-5.44-4.77-.6,.68,4.83,4.22c-1.54,2.25-10.06,15.38-12.36,33.13l-3.25-.51-.09,.42c-.05,.24-4.81,24.27,7.39,51.02l-2.78,1.44,.42,.81Z"/>
                            <path class="blue-verso-j" d="M115.53,109.13l.42-.17c-10.84-26.81-5.93-50.16-5.37-52.57l3.3,.55,.04-.23c2.63-16.94,10.18-27.6,10.25-27.7l-.37-.26c-.08,.11-7.62,10.75-10.3,27.67l-3.26-.54-.05,.2c-.06,.24-6.11,24.73,5.34,53.05Z"/>
                            <path class="blue-verso-g" d="M201.96,160.51c5.63,0,11.6-.54,17.88-1.79l-.18-.89c-44.13,8.78-72.77-17.72-75.82-20.7l1.98-2.72-.3-.27c-21.32-19.58-24.95-45.33-24.99-45.59l-.05-.39h-3.4c-2.32-13.39-.9-22.08-.89-22.17l-.9-.15c-.02,.09-1.48,9.1,.96,22.85l.07,.38h3.37c.55,3.33,5.06,27.05,24.92,45.47l-1.96,2.69,.26,.27c.26,.27,22.54,23.01,59.03,23.02Z"/>
                            <path class="blue-verso-j" d="M202.53,166.94c9.47,0,20.41-1.37,31.55-5.64l-.16-.42c-29.62,11.34-57.88,2.11-60.46,1.23l.75-3.26-.2-.07c-34.51-11.5-49-38.79-50.31-41.38l3.07-1.6-.12-.2c-7.57-13.31-8.88-22.84-8.9-22.94l-.45,.06c.01,.09,1.32,9.61,8.84,22.9l-3.04,1.58,.09,.2c.14,.3,14.36,29.62,50.47,41.75l-.75,3.25,.19,.07c.19,.07,12.44,4.47,29.42,4.48Z"/>
                            <path class="blue-verso-g" d="M140.14,134.79l.64-.64c-.08-.08-7.56-7.62-11.66-14.65l-.78,.46c4.16,7.13,11.72,14.76,11.8,14.83Z"/>
                            <path class="blue-verso-g" d="M201.5,157.35c3.59,0,7.32-.25,11.17-.8l-.13-.9c-35.66,5.11-60.91-16.1-63.89-18.75l1.97-2.73-.32-.27c-9.37-7.92-14.68-16.54-14.73-16.62l-.77,.47c.05,.09,5.31,8.63,14.6,16.57l-1.95,2.7,.29,.27c.24,.22,21.64,20.05,53.77,20.05Z"/>
                            <path class="blue-verso-g" d="M202.3,147.28c8.15,0,17.24-1.37,26.75-5.19l-.34-.84c-31.14,12.49-57.7-1.54-61.17-3.51l2.87-4.97c3.17,1.77,24.62,12.85,51.23,4.88l-.26-.87c-28.31,8.47-50.68-4.88-50.9-5.02l-.4-.24-3.78,6.54,.37,.23c.2,.13,14.9,8.99,35.62,8.99Z"/>
                            <path class="blue-verso-g" d="M201.83,153.88c9.79,0,20.68-1.83,32.34-6.71l-.35-.84c-46.14,19.31-80.07-9.57-80.41-9.87l-.6,.68c.26,.22,19.66,16.73,49.02,16.73Z"/>
                            <path class="blue-verso-j" d="M202.07,143.79c3.03,0,6.17-.22,9.39-.73l-.07-.45c-21.02,3.33-39.17-5.98-39.35-6.07l-.21,.4c.16,.08,13.33,6.85,30.24,6.85Z"/>
                        </g>
                        <g>
                            <g>
                                <circle class="blue-verso-h" cx="145.62" cy="44.81" r="1.23"/>
                                <circle class="blue-verso-h" cx="137.37" cy="46.75" r="1.23"/>
                                <circle class="blue-verso-h" cx="142.7" cy="63.51" r="1.23"/>
                                <circle class="blue-verso-h" cx="136.08" cy="83.23" r="1.23"/>
                                <circle class="blue-verso-h" cx="132.74" cy="83.5" r="1.23"/>
                                <circle class="blue-verso-h" cx="117.39" cy="91.53" r="1.23"/>
                                <circle class="blue-verso-h" cx="128.13" cy="118.75" r="1.23"/>
                                <circle class="blue-verso-h" cx="134.6" cy="116.56" r="1.23"/>
                                <circle class="blue-verso-h" cx="152.24" cy="136.09" r="1.23"/>
                                <circle class="blue-verso-h" cx="126.43" cy="61.16" r="1.23"/>
                                <circle class="blue-verso-h" cx="122.27" cy="67.1" r="1.23"/>
                                <circle class="blue-verso-h" cx="115.97" cy="64.77" r="1.23"/>
                                <circle class="blue-verso-h" cx="170.89" cy="136.24" r="1.23"/>
                                <circle class="blue-verso-h" cx="162.65" cy="131.01" r="1.23"/>
                                <circle class="blue-verso-h" cx="116.4" cy="113.9" r="1.23"/>
                                <circle class="blue-verso-h" cx="116.21" cy="110.16" r="1.23"/>
                                <circle class="blue-verso-h" cx="141.56" cy="92.38" r="1.23"/>
                                <circle class="blue-verso-h" cx="142.03" cy="20.81" r="1.23"/>
                                <circle class="blue-verso-h" cx="126.86" cy="53.64" r="1.23"/>
                                <circle class="blue-verso-h" cx="124.63" cy="27.88" r="1.23"/>
                                <circle class="blue-verso-h" cx="156.93" cy="20.27" r="1.23"/>
                                <circle class="blue-verso-h" cx="171.74" cy="16.76" r="1.23"/>
                                <circle class="blue-verso-h" cx="168.35" cy="16.17" r="1.23"/>
                                <circle class="blue-verso-h" cx="122.91" cy="22.17" r="1.23"/>
                                <circle class="blue-verso-h" cx="214.31" cy="8.26" r="1.23"/>
                                <circle class="blue-verso-h" cx="221.32" cy="6.55" r="1.23"/>
                                <circle class="blue-verso-h" cx="225.13" cy="14.86" r="1.23"/>
                                <circle class="blue-verso-h" cx="216.99" cy="15.74" r="1.23"/>
                                <circle class="blue-verso-h" cx="235.92" cy="8.85" r="1.23"/>
                                <circle class="blue-verso-h" cx="228.15" cy="1.72" r="1.23"/>
                                <circle class="blue-verso-h" cx="233.68" cy=".33" r="1.23"/>
                                <circle class="blue-verso-h" cx="141.28" cy="135.29" r="1.23"/>
                                <circle class="blue-verso-h" cx="225.21" cy="128.81" r="1.23"/>
                                <circle class="blue-verso-h" cx="216.42" cy="135.11" r="1.23"/>
                                <circle class="blue-verso-h" cx="222.59" cy="136.95" r="1.23"/>
                                <circle class="blue-verso-h" cx="212.53" cy="142.63" r="1.23"/>
                                <circle class="blue-verso-h" cx="229.94" cy="141.25" r="1.23"/>
                                <circle class="blue-verso-h" cx="222" cy="147.49" r="1.23"/>
                                <circle class="blue-verso-h" cx="235.05" cy="146.31" r="1.23"/>
                            </g>
                            <circle class="blue-verso-h" cx="142.96" cy="84.56" r="1.15"/>
                        </g>
                    </g>
                </g>
            </g>
        </g>
    </g>
</svg>