<svg xmlns="http://www.w3.org/2000/svg" xmlns:xlink="http://www.w3.org/1999/xlink" viewBox="0 0 256.08 256.08"><defs><style>.cls-1{stroke:#fff;stroke-miterlimit:10;stroke-width:9px;fill:url(#Dégradé_sans_nom_10);}.cls-2{fill:#8cd0e0;}.cls-3{fill:#1c3859;}</style><linearGradient id="Dégradé_sans_nom_10" x1="4.5" y1="128.04" x2="251.58" y2="128.04" gradientUnits="userSpaceOnUse"><stop offset="0" stop-color="#8cd0e0"/><stop offset="1" stop-color="#1c3859"/></linearGradient></defs><g id="Calque_2" data-name="Calque 2"><g id="Calque_1-2" data-name="Calque 1"><rect class="cls-1" x="4.5" y="4.5" width="247.08" height="247.08" rx="61.2"/><path class="cls-2" d="M148.5,180a57,57,0,0,1-22.37-21.21A58.45,58.45,0,0,1,118,128.09a58.41,58.41,0,0,1,8.14-30.67A57,57,0,0,1,148.5,76.2a66.43,66.43,0,0,1,32-7.65,67.25,67.25,0,0,1,27,5.26A54.4,54.4,0,0,1,227.86,89l-17.11,15.79Q199.07,91.26,181.8,91.25a38.4,38.4,0,0,0-19.08,4.69A33.26,33.26,0,0,0,149.65,109,38.4,38.4,0,0,0,145,128.09a38.38,38.38,0,0,0,4.69,19.08,33.35,33.35,0,0,0,13.07,13.08,38.5,38.5,0,0,0,19.08,4.68q17.28,0,28.95-13.65l17.11,15.79a53.43,53.43,0,0,1-20.4,15.3,67.66,67.66,0,0,1-27.14,5.26A66.09,66.09,0,0,1,148.5,180Z"/><path class="cls-3" d="M79.21,163.78q17.27,0,27.55-9.62T117,128.09q0-16.44-10.28-26.07T79.21,92.4H54.86v71.38Zm-51-93.25h52.3q18.75,0,33.15,7.15A53.6,53.6,0,0,1,136,97.83q8,13,8,30.26t-8,30.27a53.58,53.58,0,0,1-22.36,20.14q-14.4,7.16-33.15,7.16H28.22Z"/></g></g></svg>