<svg xmlns="http://www.w3.org/2000/svg" xmlns:xlink="http://www.w3.org/1999/xlink" viewBox="0 0 512 517.17"><defs><style>.cls-1{fill:url(#Dégradé_sans_nom_37);}.cls-2{fill:url(#Dégradé_sans_nom_3);}.cls-3{fill:url(#Dégradé_sans_nom_37-2);}.cls-4{fill:url(#Dégradé_sans_nom_3-2);}.cls-5{fill:url(#Dégradé_sans_nom_2);}.cls-6{fill:url(#Dégradé_sans_nom_2-2);}.cls-7{fill:url(#Dégradé_sans_nom_2-3);}.cls-8{fill:#fff;}.cls-9{fill:#8cd0e0;}.cls-10{fill:#1c3859;}</style><linearGradient id="Dégradé_sans_nom_37" x1="-2.35" y1="251.75" x2="336.1" y2="251.75" gradientTransform="matrix(0.71, -1.27, 1.24, 0.7, -88.59, 286.93)" gradientUnits="userSpaceOnUse"><stop offset="0" stop-color="#8cd0e0"/><stop offset="0.13" stop-color="#73aec2"/><stop offset="0.33" stop-color="#54849d"/><stop offset="0.51" stop-color="#3c637f"/><stop offset="0.69" stop-color="#2a4b6a"/><stop offset="0.86" stop-color="#203d5d"/><stop offset="1" stop-color="#1c3859"/></linearGradient><linearGradient id="Dégradé_sans_nom_3" x1="173.55" y1="183.15" x2="512" y2="183.15" gradientTransform="matrix(1.27, -0.03, -0.03, 1.43, -137.69, 12.28)" gradientUnits="userSpaceOnUse"><stop offset="0" stop-color="#8cd0e0"/><stop offset="0.07" stop-color="#7bb8cb"/><stop offset="0.21" stop-color="#5e91a8"/><stop offset="0.35" stop-color="#46718c"/><stop offset="0.5" stop-color="#335875"/><stop offset="0.65" stop-color="#264665"/><stop offset="0.81" stop-color="#1f3b5c"/><stop offset="1" stop-color="#1c3859"/></linearGradient><linearGradient id="Dégradé_sans_nom_37-2" x1="193.39" y1="602.02" x2="531.84" y2="602.02" gradientTransform="matrix(-0.71, -1.27, -1.24, 0.7, 1172.59, 286.93)" xlink:href="#Dégradé_sans_nom_37"/><linearGradient id="Dégradé_sans_nom_3-2" x1="624.4" y1="190.99" x2="962.85" y2="190.99" gradientTransform="matrix(-1.27, -0.03, 0.03, 1.43, 1221.69, 12.28)" xlink:href="#Dégradé_sans_nom_3"/><linearGradient id="Dégradé_sans_nom_2" x1="174.39" y1="307.55" x2="524.71" y2="307.55" gradientTransform="matrix(1.45, 0.3, -0.22, 1.36, -166.43, -301.29)" gradientUnits="userSpaceOnUse"><stop offset="0" stop-color="#8cd0e0"/><stop offset="0.43" stop-color="#5d90a7"/><stop offset="1" stop-color="#1c3859"/></linearGradient><linearGradient id="Dégradé_sans_nom_2-2" x1="554.58" y1="221.81" x2="904.9" y2="221.81" gradientTransform="matrix(-1.45, 0.3, 0.22, 1.36, 1250.43, -301.29)" xlink:href="#Dégradé_sans_nom_2"/><linearGradient id="Dégradé_sans_nom_2-3" x1="244.33" y1="307.55" x2="524.71" y2="307.55" xlink:href="#Dégradé_sans_nom_2"/></defs><g id="Calque_2" data-name="Calque 2"><g id="Calque_1-2" data-name="Calque 1"><polygon class="cls-1" points="397.41 1.49 0.7 341.76 483.54 517 397.41 1.49"/><polygon class="cls-2" points="78.87 195.63 512 5 426.09 517.17 78.87 195.63"/><polygon class="cls-3" points="114.59 0 511.3 340.27 28.46 515.51 114.59 0"/><polygon class="cls-4" points="433.13 194.14 0 3.51 85.91 515.67 433.13 194.14"/><polygon class="cls-5" points="428.42 9.33 0 281.95 488.79 513.53 428.42 9.33"/><polygon class="cls-6" points="83.58 7.84 512 280.45 23.21 512.04 83.58 7.84"/><polygon class="cls-7" points="428.42 9.33 117.46 207.2 126.4 341.83 488.79 513.53 428.42 9.33"/><rect class="cls-8" x="92.72" y="97.72" width="326.55" height="326.55" rx="61.2"/><path class="cls-9" d="M279.63,320.94a65.91,65.91,0,0,1-25.84-24.51q-9.4-15.68-9.4-35.43t9.4-35.44a66.05,66.05,0,0,1,25.84-24.51q16.44-8.82,37-8.83a77.57,77.57,0,0,1,31.25,6.08,62.74,62.74,0,0,1,23.47,17.48L351.55,234q-13.5-15.57-33.44-15.58a44.49,44.49,0,0,0-22,5.41A38.58,38.58,0,0,0,281,239,47.6,47.6,0,0,0,281,283a38.43,38.43,0,0,0,15.11,15.1,44.28,44.28,0,0,0,22,5.42q20,0,33.44-15.77L371.31,306a61.6,61.6,0,0,1-23.56,17.67,78.3,78.3,0,0,1-31.35,6.08Q296.06,329.78,279.63,320.94Z"/><path class="cls-10" d="M199.59,302.23q19.95,0,31.83-11.11T243.29,261q0-19-11.87-30.11t-31.83-11.12H171.47v82.46ZM140.69,194.5h60.42q21.66,0,38.29,8.27A61.91,61.91,0,0,1,265.24,226q9.21,15,9.21,35t-9.21,35a61.84,61.84,0,0,1-25.84,23.27q-16.64,8.28-38.29,8.27H140.69Z"/></g></g></svg>