<svg id="titre" xmlns="http://www.w3.org/2000/svg" viewBox="0 0 113.43 21.44">
    <defs>
        <style>.titre-cls-10{fill:#1c3859;}</style>
    </defs>
    <g>
        <g>
            <path class="titre-cls-10"
                  d="M20.37,10.73c0,5.91-4.26,10.71-10.17,10.71S0,16.64,0,10.73,4.29,0,10.2,0,20.37,4.82,20.37,10.73Zm-2.22,0c0-4.74-3.24-8.58-7.95-8.58s-8,3.84-8,8.58,3.24,8.58,8,8.58S18.15,15.47,18.15,10.73Z"/>
            <path class="titre-cls-10"
                  d="M40.17,15.68l1.92.93a10.07,10.07,0,0,1-8.67,4.8A10.41,10.41,0,0,1,23.07,10.7,10.39,10.39,0,0,1,33.42,0a10.11,10.11,0,0,1,8.67,4.77l-1.92,1a8,8,0,0,0-6.75-3.6c-4.74,0-8.13,3.84-8.13,8.55s3.39,8.58,8.13,8.58A8,8,0,0,0,40.17,15.68Z"/>
            <path class="titre-cls-10" d="M58.8.2V2.36H43.59V.2ZM50.1,5.84h2.19V21.2H50.1Z"/>
            <path class="titre-cls-10" d="M75.27,2.36H61.5V.2H75.27Zm-.93,9.42H61.5V9.62H74.34ZM75.45,19V21.2h-14V19Z"/>
            <path class="titre-cls-10"
                  d="M80.91,3.38H78.75V.2h2.16Zm11.28,9.75,2.1.93c-.45,5.07-3.63,7.38-7.62,7.38-4.32,0-7.92-2.58-7.92-8.58V6.17h2.16V13c0,4.2,2.64,6.33,5.76,6.33S92.1,17.15,92.19,13.13ZM94.35.2V10.79l-2.16-.93V.2Z"/>
            <path class="titre-cls-10"
                  d="M99.42,16.1a5,5,0,0,0,2.85,2.61l-1,1.92a7.09,7.09,0,0,1-3.93-3.81Zm14-.78c0,4.05-3.78,6.12-7.65,6.12-.48,0-.81,0-1.26-.06l1.08-2.1h.12c2.22,0,5.52-1,5.52-4,0-2.25-1.77-2.88-5.88-3.63s-7.44-1.92-7.47-5.76c0-3.09,1.84-5.73,6.36-5.92h.19l-.29,2.39H104a3.58,3.58,0,0,0-4,3.55c-.1,2.1,1.71,2.94,5.7,3.6S113.43,11.21,113.43,15.32Z"/>
        </g>
    </g>
</svg>