<svg
        xmlns="http://www.w3.org/2000/svg"
        xmlns:xlink="http://www.w3.org/1999/xlink" viewBox="0 0 241 150.24">
    <defs>
        <style>.silver-recto-cls-1{fill:none;}.silver-recto-cls-2{fill:#d8d8d8;}.silver-recto-cls-3{fill:#1c3859;}.silver-recto-cls-4{clip-path:url(#silver-recto-clip-path);}.silver-recto-cls-5{fill:#c6c6c6;}.silver-recto-cls-6{fill:#ededed;}.silver-recto-cls-7{fill:#b3b2b2;}.silver-recto-cls-8{font-size:9px;}.silver-recto-cls-11,.silver-recto-cls-8{fill:#e14259;}.silver-recto-cls-11,.silver-recto-cls-18,.silver-recto-cls-19,.silver-recto-cls-8{font-family:MADEEvolveSans, MADE Evolve Sans;}.silver-recto-cls-9{letter-spacing:-0.01em;}.silver-recto-cls-10{letter-spacing:-0.02em;}.silver-recto-cls-11{font-size:11px;}.silver-recto-cls-12{font-size:8px;font-family:MADEEvolveSans-Light, MADE Evolve Sans;font-weight:300;}.silver-recto-cls-12,.silver-recto-cls-18,.silver-recto-cls-19{fill:#fff;}.silver-recto-cls-13{letter-spacing:-0.02em;}.silver-recto-cls-14{letter-spacing:-0.01em;}.silver-recto-cls-15{letter-spacing:0em;}.silver-recto-cls-16{letter-spacing:0.01em;}.silver-recto-cls-17{letter-spacing:-0.02em;}.silver-recto-cls-18{font-size:18px;}.silver-recto-cls-19{font-size:12px;}.silver-recto-cls-20{letter-spacing:-0.01em;}.silver-recto-cls-21{letter-spacing:-0.02em;}.silver-recto-cls-22{letter-spacing:0em;}.silver-recto-cls-23{clip-path:url(#silver-recto-clip-path-2);}</style>
        <clipPath id="clip-path">
            <rect class="silver-recto-cls-1" x="106" width="135" height="150"/>
        </clipPath>
        <clipPath id="clip-path-2">
            <rect class="silver-recto-cls-1" x="11.57" y="20.75" width="83.18" height="15.73"/>
        </clipPath>
    </defs>
    <g id="Calque_2" data-name="Calque 2">
        <g id="Calque_1-2" data-name="Calque 1">
            <g id="Shapes">
                <polygon class="silver-recto-cls-2" points="0 150.24 0 0 126 0 126 150.22 0 150.24"/>
                <rect class="silver-recto-cls-3" y="127.53" width="241" height="9.64"/>
            </g>
            <g class="silver-recto-cls-4">
                <path class="silver-recto-cls-5" d="M138.1,45.78c7.35-16.54,18-24.58,18.09-24.66l-.27-.37a46.73,46.73,0,0,0-6.32,6.11,73.73,73.73,0,0,0-11.91,18.73Z"/>
                <path class="silver-recto-cls-6" d="M162.16,123.33l2.12-3.75-.28-.24c-17.7-15.21-20.35-33.61-20.37-33.8l-.9.12c0,.19,2.68,18.73,20.39,34.12l-1.21,2.14c-14-12.26-18.2-24.87-18.24-25l-.12-.38-3.38.56a62.14,62.14,0,0,1-3.44-12.81l-.9.12a63.37,63.37,0,0,0,3.63,13.37l.14.34,3.34-.56c.81,2.23,5.58,14,18.8,25.4Z"/>
                <path class="silver-recto-cls-6" d="M161.5,130.74,162,130c-16.55-11.39-21.88-24.75-21.93-24.89l-.14-.35-3.43.66a69.28,69.28,0,0,1-7-24.61l6.59-1.09,0-.41c-1.19-17.21,3.74-28.36,3.79-28.47l.18-.41L134,47.55C146.23,17.14,171.86,7.15,175.18,6l4.75,8.84.37-.14c22.46-8.36,43.5.07,43.71.16l.34-.84c-.21-.09-21.33-8.57-44-.31l-4.73-8.81-.36.12c-.29.09-29.14,9.5-42.23,42.62l-.16.4,6,2.86C138,53,134.2,63.58,135.18,79L128.61,80v.39a69.15,69.15,0,0,0,7.24,25.69l.15.31,3.37-.65C140.35,108,146.21,120.21,161.5,130.74Z"/>
                <path class="silver-recto-cls-5" d="M201.86,133.61a63.66,63.66,0,0,0,22.4-4.16l-.16-.42c-33,12.29-56.69-6.75-56.93-7l-.21-.17-3.34,5.82c-15.18-10.42-22-26.54-22.06-26.7l-.07-.16-3.4.56c-3.31-7.09-4.89-16.7-4.9-16.8l-.45.08c0,.09,1.62,9.91,5,17.07l.07.16,3.38-.57c.78,1.76,7.76,16.95,22.36,26.88l.2.13,3.32-5.78A59.9,59.9,0,0,0,201.86,133.61Z"/>
                <path class="silver-recto-cls-6" d="M143.43,62.49c6.48-30.72,30.35-41.25,30.59-41.35l.45-.2-1.78-3.38-.8.42,1.33,2.53c-3.35,1.62-24.59,12.93-30.68,41.79Z"/>
                <path class="silver-recto-cls-6" d="M146.6,44a62.77,62.77,0,0,1,19.24-21.74l.36-.23-1.65-2.93a22.78,22.78,0,0,1,3.06-1.94l-.37-.83a24.52,24.52,0,0,0-3.55,2.27l-.33.24,1.64,2.9A64.12,64.12,0,0,0,145.79,43.6Z"/>
                <path class="silver-recto-cls-5" d="M141,91.31l.43-.14c-7-23.13,3.22-43.79,3.32-44l.11-.2-3-1.44a65.09,65.09,0,0,1,19-24l.16-.11-1.58-3a67.08,67.08,0,0,1,13.39-8.12l4.75,8.85.19-.08c20.49-8.77,37.94-3.57,38.11-3.52l.13-.43c-.17-.06-17.66-5.27-38.23,3.45L173,9.75l-.19.08A67.06,67.06,0,0,0,159,18.21l-.15.11,1.57,3a66,66,0,0,0-19.07,24.24l-.09.2,3,1.43C143.2,49.42,134.3,69.24,141,91.31Z"/>
                <path class="silver-recto-cls-5" d="M122.7,65.93c2.42-23.39,14.32-38.42,14.44-38.57l.13-.17-7.48-6.55C140.66,4.72,158.56-4.85,160.67-5.94L163.4-.37c-16.89,9.09-25.91,21.05-26,21.17l-.13.17,5.33,4.65.15-.18A77.16,77.16,0,0,1,177.93,1.13l4.84,9,.18,0a64,64,0,0,1,30.17-1.82l.1-.45A64.72,64.72,0,0,0,183,9.56l-4.84-9L178,.64c-.2,0-19.89,5.47-35.43,24.33l-4.66-4.07a86.27,86.27,0,0,1,25.92-21l.19-.1-3.13-6.38-.2.1c-.2.1-19.81,10-31.37,27l-.11.16,7.46,6.54a80.94,80.94,0,0,0-14.4,38.63Z"/>
                <path class="silver-recto-cls-6" d="M202.09,137.25a64.75,64.75,0,0,0,13.36-1.4l-.19-.89c-26.79,5.64-46.11-7.82-46.31-8l-.4-.29-5,8.69c-16.38-9.91-24.94-26-25-26.17l-.15-.29-3.51.56A74.14,74.14,0,0,1,126,77.85l6.61-1.16V76.3c-.27-14.58,2.94-22.94,3-23l.15-.4L129.63,50a73.57,73.57,0,0,1,11.8-22.35l.29-.34-7.6-6.63A86.75,86.75,0,0,1,158.92-.92l-.42-.81a87.81,87.81,0,0,0-25.36,22.18l-.27.33,7.58,6.61a76.14,76.14,0,0,0-11.81,22.69l-.12.38,6.06,2.89c-.63,1.82-3.08,9.82-2.9,22.58l-6.6,1.16v.38a74.46,74.46,0,0,0,9.15,32.75l.15.27,3.49-.55c1.26,2.26,10,17.19,25.6,26.47l.39.24,5-8.63A63.7,63.7,0,0,0,202.09,137.25Z"/>
                <path class="silver-recto-cls-6" d="M143.08,20.18A81.77,81.77,0,0,1,180.58-3L185.49,6l.26-.06c19.29-4.46,34.24.45,34.39.5l.22-.65c-.15,0-15.15-5-34.51-.57l-4.92-9.08-.25.06a82.14,82.14,0,0,0-38.11,23.48Z"/>
                <path class="silver-recto-cls-6" d="M234.74,8.65l.46-.78c-.19-.12-19.9-11.63-46.58-6.71l-2.87-5.31A77,77,0,0,1,202-5.79h.46V-10L202-10a83.7,83.7,0,0,0-34.07,7.19L166.64-5.4l-.81.4,1.67,3.36.4-.19a82.76,82.76,0,0,1,33.61-7.3V-6.7A73.42,73.42,0,0,0,185-4.89l-.56.14,3.73,6.93.33-.07C215-2.89,234.54,8.53,234.74,8.65Z"/>
                <path class="silver-recto-cls-6" d="M226.93,1.73l.36-.84c-.15-.06-15.37-6.49-35.82-3.55l.13.9C211.78-4.66,226.78,1.66,226.93,1.73Z"/>
                <path class="silver-recto-cls-5" d="M201.34,150.25A89.35,89.35,0,0,0,220.93,148l-.1-.44c-29.89,6.72-51.13-2.93-63.68-12.2a78.05,78.05,0,0,1-20.31-22l-.08-.15-3.68.66c-9.3-17.61-10-29.13-10-29.24v-.22h-3.38C115.45,51,133,27.53,133.13,27.3l.13-.17-7.61-6.61a92.29,92.29,0,0,1,37.49-31.38l1.5,2.94,5.89-2.39,1.49,3,.19-.07c15.76-6.16,32.06-5.32,34.08-5.19v6.68h.22c12.64.28,25.88,5.89,26,5.95l.18-.42c-.13-.06-13.29-5.64-26-6V-13l-.2,0c-.17,0-17.51-1.37-34.3,5.13l-1.49-3-5.9,2.39-1.5-2.94-.19.07a92.59,92.59,0,0,0-38,31.79l-.12.17,7.6,6.59c-1.59,2.21-17.54,25.29-13.35,57.51l0,.2h3.35c.14,1.67,1.37,12.89,10.1,29.36l.08.15,3.68-.66a79.14,79.14,0,0,0,20.34,22A73.91,73.91,0,0,0,201.34,150.25Z"/>
                <path class="silver-recto-cls-6" d="M121.65,75.31,129.21,74v-.38a81.9,81.9,0,0,1,2.26-18.09l.1-.38-3.45-1.49-.36.84,2.74,1.18a83.49,83.49,0,0,0-2.2,17.56l-5.75,1V71.55l3.3-.51,0-.37c0-.06.38-5.92.83-8.32l-.9-.16c-.39,2.12-.72,6.72-.81,8.06l-3.36.52Z"/>
                <path class="silver-recto-cls-6" d="M117.64,113.79,121.2,112l-.19-.39c-11.4-24.68-8.16-47.09-7.58-50.43l3.31.52.06-.47a79.41,79.41,0,0,1,12.49-33.51l.24-.34-5.44-4.76-.6.68,4.83,4.23A80.93,80.93,0,0,0,116,60.61l-3.26-.51-.08.42c-.06.25-4.82,24.28,7.39,51L117.22,113Z"/>
                <path class="silver-recto-cls-5" d="M115.56,109.13,116,109c-10.84-26.81-5.93-50.16-5.37-52.57l3.3.55,0-.23c2.63-16.94,10.18-27.6,10.25-27.7l-.37-.27c-.07.11-7.62,10.76-10.3,27.67l-3.26-.54,0,.21C110.16,56.32,104.1,80.81,115.56,109.13Z"/>
                <path class="silver-recto-cls-6" d="M202,160.51a91.51,91.51,0,0,0,17.89-1.79l-.18-.89c-44.13,8.78-72.78-17.72-75.83-20.7l2-2.72-.3-.27c-21.32-19.58-25-45.34-25-45.59l0-.4h-3.4c-2.32-13.39-.9-22.08-.89-22.17l-.89-.15c0,.09-1.48,9.1,1,22.85l.07.38h3.37c.55,3.33,5.06,27.05,24.92,45.47l-2,2.69.26.27C143.22,137.76,165.51,160.51,202,160.51Z"/>
                <path class="silver-recto-cls-5" d="M202.58,167a88.23,88.23,0,0,0,31.55-5.64l-.16-.42c-29.63,11.34-57.9,2.11-60.47,1.22l.75-3.26-.19-.06c-34.52-11.51-49-38.79-50.32-41.38l3.07-1.6-.12-.2c-7.57-13.31-8.88-22.85-8.9-22.94l-.45.06c0,.09,1.32,9.61,8.84,22.9l-3,1.58.09.2c.14.29,14.37,29.62,50.49,41.74L173,162.4l.19.07A94.43,94.43,0,0,0,202.58,167Z"/>
                <path class="silver-recto-cls-6" d="M140.17,134.79l.64-.64c-.07-.08-7.56-7.62-11.66-14.65l-.78.46C132.53,127.09,140.09,134.72,140.17,134.79Z"/>
                <path class="silver-recto-cls-6" d="M201.55,157.36a78.7,78.7,0,0,0,11.16-.8l-.12-.9c-35.68,5.12-60.93-16.1-63.91-18.75l2-2.72-.32-.28a77.79,77.79,0,0,1-14.74-16.62l-.77.47a78.24,78.24,0,0,0,14.6,16.57l-1.95,2.7.29.27C148,137.53,169.4,157.36,201.55,157.36Z"/>
                <path class="silver-recto-cls-6" d="M202.35,147.29a71.33,71.33,0,0,0,26.75-5.19l-.34-.84c-31.14,12.49-57.72-1.55-61.19-3.51l2.88-5a69,69,0,0,0,51.24,4.89l-.26-.87c-28.32,8.47-50.69-4.89-50.91-5l-.4-.24-3.78,6.55.38.23A74.46,74.46,0,0,0,202.35,147.29Z"/>
                <path class="silver-recto-cls-6" d="M201.88,153.89a83.27,83.27,0,0,0,32.35-6.72l-.35-.84c-46.15,19.31-80.1-9.57-80.43-9.86l-.6.68C153.11,137.38,172.51,153.89,201.88,153.89Z"/>
                <path class="silver-recto-cls-5" d="M202.11,143.79a59.87,59.87,0,0,0,9.39-.73l-.07-.44c-21,3.33-39.17-6-39.35-6.08l-.22.4A72.58,72.58,0,0,0,202.11,143.79Z"/>
                <circle class="silver-recto-cls-7" cx="145.65" cy="44.81" r="1.23"/>
                <circle class="silver-recto-cls-7" cx="137.41" cy="46.75" r="1.23"/>
                <circle class="silver-recto-cls-7" cx="142.73" cy="63.51" r="1.23"/>
                <circle class="silver-recto-cls-7" cx="136.11" cy="83.23" r="1.23"/>
                <circle class="silver-recto-cls-7" cx="132.77" cy="83.5" r="1.23"/>
                <circle class="silver-recto-cls-7" cx="117.41" cy="91.54" r="1.23"/>
                <circle class="silver-recto-cls-7" cx="128.16" cy="118.75" r="1.23"/>
                <circle class="silver-recto-cls-7" cx="134.63" cy="116.56" r="1.23"/>
                <circle class="silver-recto-cls-7" cx="152.28" cy="136.09" r="1.23"/>
                <circle class="silver-recto-cls-7" cx="126.46" cy="61.16" r="1.23"/>
                <circle class="silver-recto-cls-7" cx="122.3" cy="67.1" r="1.23"/>
                <circle class="silver-recto-cls-7" cx="116" cy="64.78" r="1.23"/>
                <circle class="silver-recto-cls-7" cx="170.93" cy="136.25" r="1.23"/>
                <circle class="silver-recto-cls-7" cx="162.69" cy="131.01" r="1.23"/>
                <circle class="silver-recto-cls-7" cx="116.43" cy="113.91" r="1.23"/>
                <circle class="silver-recto-cls-7" cx="116.24" cy="110.16" r="1.23"/>
                <circle class="silver-recto-cls-7" cx="141.59" cy="92.39" r="1.23"/>
                <circle class="silver-recto-cls-7" cx="142.06" cy="20.81" r="1.23"/>
                <circle class="silver-recto-cls-7" cx="126.89" cy="53.64" r="1.23"/>
                <circle class="silver-recto-cls-7" cx="124.66" cy="27.88" r="1.23"/>
                <circle class="silver-recto-cls-7" cx="156.96" cy="20.27" r="1.23"/>
                <circle class="silver-recto-cls-7" cx="171.78" cy="16.76" r="1.23"/>
                <circle class="silver-recto-cls-7" cx="168.39" cy="16.17" r="1.23"/>
                <circle class="silver-recto-cls-7" cx="122.94" cy="22.17" r="1.23"/>
                <circle class="silver-recto-cls-7" cx="214.36" cy="8.26" r="1.23"/>
                <circle class="silver-recto-cls-7" cx="221.37" cy="6.55" r="1.23"/>
                <circle class="silver-recto-cls-7" cx="225.18" cy="14.86" r="1.23"/>
                <circle class="silver-recto-cls-7" cx="217.04" cy="15.74" r="1.23"/>
                <circle class="silver-recto-cls-7" cx="235.97" cy="8.85" r="1.23"/>
                <circle class="silver-recto-cls-7" cx="228.2" cy="1.72" r="1.23"/>
                <circle class="silver-recto-cls-7" cx="233.74" cy="0.33" r="1.23"/>
                <circle class="silver-recto-cls-7" cx="141.31" cy="135.29" r="1.23"/>
                <circle class="silver-recto-cls-7" cx="225.26" cy="128.81" r="1.23"/>
                <circle class="silver-recto-cls-7" cx="216.47" cy="135.11" r="1.23"/>
                <circle class="silver-recto-cls-7" cx="222.65" cy="136.95" r="1.23"/>
                <circle class="silver-recto-cls-7" cx="212.58" cy="142.63" r="1.23"/>
                <circle class="silver-recto-cls-7" cx="229.99" cy="141.25" r="1.23"/>
                <circle class="silver-recto-cls-7" cx="222.05" cy="147.5" r="1.23"/>
                <circle class="silver-recto-cls-7" cx="235.11" cy="146.32" r="1.23"/>
                <circle class="silver-recto-cls-7" cx="143" cy="84.56" r="1.15"/>
            </g>
            <text class="silver-recto-cls-8" transform="translate(11.89 116.81)">Blood Group</text>
            <text data-id="bloodgroup" class="silver-recto-cls-11" transform="translate(66.77 116.81)">A+</text>
            <text data-id="birthdate" class="silver-recto-cls-12" transform="translate(11.89 102.64)">14/08/1978</text>
            <text data-id="lastname" class="silver-recto-cls-18" transform="translate(11.89 76.63)">DUPONT</text>
            <text data-id="firstname" class="silver-recto-cls-19" transform="translate(11.89 91.03)">Nicolas</text>
            <g id="Octeus">
                <path class="silver-recto-cls-3" d="M17.83,45.26l.29.14a3,3,0,0,1-2.59,1.48,3.21,3.21,0,0,1,0-6.41,3,3,0,0,1,2.59,1.47l-.29.14a2.61,2.61,0,0,0-2.3-1.3,2.9,2.9,0,0,0,0,5.78A2.61,2.61,0,0,0,17.83,45.26Z"/>
                <path class="silver-recto-cls-3" d="M23.83,44.82H20.89l-.77,2h-.33l2.43-6.3h.28l2.44,6.3H24.6Zm-.12-.3L22.36,41,21,44.52Z"/>
                <path class="silver-recto-cls-3" d="M31,46.82l-1.4-2.48a2.86,2.86,0,0,1-.42,0h-2v2.45h-.31v-6.3h2.26a1.92,1.92,0,0,1,2.06,1.93,1.83,1.83,0,0,1-1.33,1.81l1.45,2.56Zm-.1-4.37a1.59,1.59,0,0,0-1.72-1.62h-2v3.23h2A1.59,1.59,0,0,0,30.89,42.45Z"/>
                <path class="silver-recto-cls-3" d="M38.71,43.67a3,3,0,0,1-3.3,3.15H33.65v-6.3h1.76A3,3,0,0,1,38.71,43.67Zm-.36,0a2.71,2.71,0,0,0-2.94-2.84H34v5.68h1.45A2.73,2.73,0,0,0,38.35,43.67Z"/>
                <g class="silver-recto-cls-23">
                    <path class="silver-recto-cls-3" d="M89.12,27.75c-2.92-.48-4.18-1.1-4.18-2.64,0-1.83,1.5-2.77,3.92-2.77H89l1-1.48a7.48,7.48,0,0,0-1.17-.11c-3.81,0-5.5,2.09-5.5,4.36,0,2.82,2.46,3.67,5.48,4.22s4.31,1,4.31,2.67c0,2.17-2.42,2.9-4.05,2.9H89l-.79,1.54c.33,0,.57,0,.93,0C92,36.48,94.76,35,94.76,32s-2.82-3.77-5.64-4.25M83,33.1a5.24,5.24,0,0,0,2.89,2.79l.72-1.41a3.63,3.63,0,0,1-2.09-1.91ZM79.18,20.91V28l1.58.68V20.91Zm-4.05,14c-2.29,0-4.22-1.56-4.22-4.64v-5H69.32v4.9c0,4.4,2.64,6.29,5.81,6.29,2.93,0,5.26-1.69,5.59-5.41l-1.54-.68c-.07,3-1.8,4.51-4.05,4.51m-4.22-14H69.32v2.33h1.59ZM56.67,36.31H66.9V34.7H56.67Zm9.42-8.49H56.67V29.4h9.42Zm.68-6.91H56.67v1.58h10.1ZM48.31,36.31h1.61V25H48.31ZM43.54,22.49H54.69V20.91H43.54ZM36.08,34.9a6,6,0,0,1-6-6.29,6,6,0,0,1,6-6.27A5.82,5.82,0,0,1,41,25l1.41-.71a7.41,7.41,0,0,0-6.36-3.49,7.62,7.62,0,0,0-7.59,7.83,7.64,7.64,0,0,0,7.59,7.85,7.37,7.37,0,0,0,6.36-3.52L41,32.26a5.82,5.82,0,0,1-5,2.64m-17,0c-3.47,0-5.85-2.81-5.85-6.29s2.38-6.29,5.85-6.29,5.83,2.81,5.83,6.29-2.37,6.29-5.83,6.29m0-14.14a7.55,7.55,0,0,0-7.48,7.85,7.48,7.48,0,1,0,14.94,0,7.53,7.53,0,0,0-7.46-7.85"/>
                </g>
            </g>
        </g>
    </g>
</svg>